
<?xml version="1.0" standalone="no"?>
<!DOCTYPE svg PUBLIC "-//W3C//DTD SVG 20010904//EN"
 "http://www.w3.org/TR/2001/REC-SVG-20010904/DTD/svg10.dtd">
<svg version="1.0" xmlns="http://www.w3.org/2000/svg"
 width="489.000000pt" height="119.000000pt" viewBox="0 0 489.000000 119.000000"
 preserveAspectRatio="xMidYMid meet">
<metadata>
Created by potrace 1.16, written by Peter Selinger 2001-2019
</metadata>
<g transform="translate(0.000000,119.000000) scale(0.100000,-0.100000)"
fill="#000000" stroke="none">
<path d="M246 1158 c3 -18 7 -42 9 -53 3 -11 -43 -242 -100 -514 -78 -366
-111 -506 -129 -538 l-25 -44 592 3 592 3 46 23 c55 27 133 102 160 155 26 49
38 101 103 417 49 239 53 271 44 320 -21 119 -99 222 -186 248 -28 9 -193 12
-575 12 l-536 0 5 -32z m701 -236 c73 -38 74 -59 19 -323 -26 -123 -54 -239
-64 -257 -29 -55 -79 -72 -215 -72 -87 0 -117 3 -117 13 0 10 116 562 135 646
6 23 8 23 103 19 74 -3 107 -9 139 -26z"/>
<path d="M3845 1173 c4 -10 12 -29 17 -43 8 -20 -12 -128 -91 -505 -56 -264
-107 -495 -113 -513 -5 -19 -24 -49 -40 -68 l-30 -34 316 0 c174 0 316 2 316
4 0 2 -6 19 -14 37 -13 32 -8 64 93 542 102 479 110 510 140 547 17 21 31 41
31 44 0 3 -142 6 -316 6 -297 0 -316 -1 -309 -17z"/>
<path d="M4530 673 c0 -73 -7 -82 -63 -85 -51 -3 -51 -3 -59 -43 -4 -22 -10
-50 -13 -62 -5 -22 -2 -23 45 -23 27 0 50 -3 50 -7 0 -5 -17 -90 -37 -189 -32
-154 -36 -186 -25 -208 20 -45 66 -57 210 -54 l127 3 11 50 c20 82 20 80 -38
77 -84 -4 -84 -7 -46 171 l33 157 67 0 c75 0 67 -8 87 88 l9 42 -69 0 c-78 0
-80 3 -54 75 8 22 15 41 15 43 0 1 -56 2 -125 2 l-125 0 0 -37z"/>
<path d="M1582 570 c-45 -28 -56 -58 -102 -278 -45 -215 -47 -238 -24 -270 15
-22 18 -22 283 -22 l268 0 21 72 c12 39 21 73 19 74 -2 2 -21 -2 -43 -8 -21
-6 -100 -12 -174 -12 l-135 -1 -3 35 c-4 64 -2 64 199 70 l183 5 28 138 c29
136 29 138 11 175 l-18 37 -240 3 c-225 2 -242 1 -273 -18z m324 -112 c10 -10
11 -22 2 -55 l-10 -43 -85 0 -84 0 7 38 c8 43 27 69 58 76 34 7 98 -1 112 -16z"/>
<path d="M2197 563 c3 -16 -14 -112 -36 -215 -23 -103 -41 -208 -41 -233 0
-51 20 -99 45 -109 30 -11 610 -7 622 5 8 8 13 8 17 0 5 -7 50 -11 123 -11
106 0 115 1 108 17 -4 10 -9 25 -12 33 -6 22 85 437 107 488 11 25 20 46 20
48 0 2 -59 4 -131 4 l-131 0 5 -26 c2 -14 -8 -82 -23 -152 -16 -70 -36 -161
-45 -203 -14 -63 -21 -78 -41 -88 -34 -15 -70 -14 -87 3 -12 13 -8 42 29 216
24 110 48 210 54 220 5 10 10 21 10 24 0 3 -58 6 -130 6 l-130 0 0 -44 c0 -60
-78 -418 -93 -428 -18 -11 -85 -10 -92 2 -11 18 75 412 96 443 l20 27 -134 0
-134 0 4 -27z"/>
</g>
</svg>
